<svg xmlns="http://www.w3.org/2000/svg" viewBox="0 0 64 64" width="64" height="64">
  <defs>
    <linearGradient id="flame" x1="0%" y1="100%" x2="100%" y2="0%">
      <stop offset="0%" stop-color="#FF3366"/>
      <stop offset="100%" stop-color="#FF7A1F"/>
    </linearGradient>
    <linearGradient id="bg" x1="0%" y1="0%" x2="100%" y2="100%">
      <stop offset="0%" stop-color="#1A1A22"/>
      <stop offset="100%" stop-color="#0E0E14"/>
    </linearGradient>
  </defs>
  <rect width="64" height="64" rx="16" fill="url(#bg)"/>
  <!-- llama principal -->
  <path d="M32 8 C28 16 20 18 22 28 C24 36 20 38 18 44 C22 40 24 38 26 42 C26 34 30 30 30 24 C32 30 30 36 34 42 C36 38 38 40 42 44 C40 38 36 36 38 28 C40 18 34 14 32 8Z" fill="url(#flame)" opacity="0.95"/>
  <!-- llama interior -->
  <path d="M32 20 C30 25 26 27 28 33 C29 37 27 39 26 42 C28 40 29.5 39 30.5 41 C30.5 36 32 33 32 29 C33 33 32 36.5 34 41 C35 39 36.5 40 38 42 C37 39 35 37 36 33 C38 27 34 23 32 20Z" fill="#FF7A1F" opacity="0.6"/>
  <!-- punto base -->
  <ellipse cx="32" cy="50" rx="6" ry="2.5" fill="url(#flame)" opacity="0.25"/>
</svg>
